<svg xmlns="http://www.w3.org/2000/svg" viewBox="0 0 512 512"><defs><style>.cls-1{fill:#0b0c23;}.cls-2{fill:#6610f2;}</style></defs><g id="Camada_4" data-name="Camada 4"><rect class="cls-1" width="512" height="512"/></g><g id="Camada_3" data-name="Camada 3"><polygon class="cls-2" points="321.35 149.4 335.08 161.98 353.42 165.16 340.85 178.89 337.67 197.23 323.94 184.65 305.6 181.47 318.17 167.75 321.35 149.4"/></g><g id="Camada_2" data-name="Camada 2"><path class="cls-2" d="M293.2,208.59h0a12.37,12.37,0,0,1,7.92,15.61L258.35,355.13a12.4,12.4,0,0,1-15.62,7.93h0a12.38,12.38,0,0,1-7.92-15.62l42.78-130.93A12.38,12.38,0,0,1,293.2,208.59Z"/><path class="cls-2" d="M401.5,132.89h0a12.82,12.82,0,0,1,8.21,16.18L365.39,284.74A12.84,12.84,0,0,1,349.21,293h0A12.83,12.83,0,0,1,341,276.77L385.32,141.1A12.84,12.84,0,0,1,401.5,132.89Z"/></g><g id="Camada_1" data-name="Camada 1"><path class="cls-2" d="M253.27,373.57q-33.5-18.42-53.3-52.51T180.15,241.8q0-45.57,19.82-79.46t53.3-52.11Q286.75,92,326.39,92t73.12,18.23q33.48,18.22,53.3,52.11t19.81,79.46q0,45.18-19.81,79.26t-53.3,52.51Q366,392,326.39,392T253.27,373.57Zm123-34.48q22.59-12.87,35.87-37.64t13.27-59.25q0-34.87-13.27-59.65T376.52,145.1q-22.39-12.67-50.13-12.68T276.06,145.1q-22.59,12.69-35.67,37.45T227.31,242.2q0,34.47,13.48,59.25t36.26,37.64a102.07,102.07,0,0,0,99.27,0Z"/><path class="cls-2" d="M114.85,90.71h.3A22.85,22.85,0,0,1,138,113.56V369.74a22.85,22.85,0,0,1-22.85,22.84h-.3A22.85,22.85,0,0,1,92,369.74V113.56A22.85,22.85,0,0,1,114.85,90.71Z"/></g></svg>